<svg width="12" height="12" viewBox="0 0 12 12" fill="none" xmlns="http://www.w3.org/2000/svg">
<path d="M10.6349 7.32366C10.175 7.08178 9.65626 7.00978 9.14194 6.99178C8.71422 6.98015 8.07224 6.72027 8.07224 5.99988C8.07224 5.46287 8.54224 5.02936 9.14844 5.00799C9.66276 4.98999 10.1816 4.91799 10.641 4.67386C11.9392 3.98234 12.386 2.45081 11.6363 1.25192C10.8805 0.0522669 9.21634 -0.355741 7.91368 0.338022C7.07125 0.783156 6.55246 1.61342 6.55612 2.50819C6.55612 2.9942 6.74477 3.43971 6.98384 3.85784C7.1855 4.20547 7.28267 4.85574 6.5984 5.22099C6.08409 5.4925 5.44251 5.323 5.12498 4.85011C4.85623 4.4496 4.53178 4.07647 4.07235 3.83459C2.77253 3.1412 1.10801 3.55296 0.362762 4.74848C-0.38493 5.94813 0.0598633 7.47891 1.35968 8.17043C2.20048 8.61556 3.23359 8.61556 4.07439 8.17043C4.53178 7.9278 4.85623 7.55504 5.12498 7.15491C5.34493 6.82827 5.90194 6.41052 6.5984 6.78327C7.11353 7.0529 7.2721 7.65292 6.98384 8.14867C6.7468 8.55856 6.55612 9.01007 6.55612 9.49608C6.55612 10.8791 7.77219 11.9981 9.27082 12C10.7703 12 11.9835 10.8791 11.9855 9.49608C11.99 8.60168 11.4753 7.77142 10.6345 7.32403L10.6349 7.32366Z" fill="black"/>
</svg>
